<svg width="90" height="90" viewBox="0 0 90 90" fill="none" xmlns="http://www.w3.org/2000/svg">
<path fill-rule="evenodd" clip-rule="evenodd" d="M0 28.125C0 21.9118 5.0368 16.875 11.25 16.875H53.4375C59.1515 16.875 63.8705 21.135 64.592 26.6522L82.0905 18.8751C85.8102 17.2219 90 19.9447 90 24.0153V65.9847C90 70.0553 85.8102 72.7781 82.0905 71.1249L64.592 63.3478C63.8705 68.865 59.1515 73.125 53.4375 73.125H11.25C5.0368 73.125 0 68.0882 0 61.875V28.125ZM64.6875 57.2347L84.375 65.9847L84.375 24.0153L64.6875 32.7653V57.2347ZM11.25 22.5C8.1434 22.5 5.625 25.0184 5.625 28.125V61.875C5.625 64.9816 8.1434 67.5 11.25 67.5H53.4375C56.5441 67.5 59.0625 64.9816 59.0625 61.875V28.125C59.0625 25.0184 56.5441 22.5 53.4375 22.5H11.25Z" fill="#0D6EFD"/>
</svg>
