<svg width="90" height="90" viewBox="0 0 90 90" fill="none" xmlns="http://www.w3.org/2000/svg">
<path d="M87.1965 10.9088C88.2948 12.0071 88.2948 13.7879 87.1965 14.8863L81.3303 20.7525L70.0803 9.50247L75.9465 3.63626C77.0448 2.53791 78.8256 2.53791 79.924 3.63626L87.1965 10.9088Z" fill="#0D6EFD"/>
<path d="M77.3528 24.7299L66.1028 13.4799L27.7797 51.803C27.4709 52.1118 27.2383 52.4882 27.1003 52.9024L22.5746 66.4794C22.2081 67.5787 23.254 68.6246 24.3534 68.2581L37.9303 63.7325C38.3446 63.5944 38.7209 63.3618 39.0297 63.053L77.3528 24.7299Z" fill="#0D6EFD"/>
<path fill-rule="evenodd" clip-rule="evenodd" d="M5.625 75.9375C5.625 80.5974 9.4026 84.375 14.0625 84.375H75.9375C80.5974 84.375 84.375 80.5974 84.375 75.9375V42.1875C84.375 40.6342 83.1158 39.375 81.5625 39.375C80.0092 39.375 78.75 40.6342 78.75 42.1875V75.9375C78.75 77.4908 77.4908 78.75 75.9375 78.75H14.0625C12.5092 78.75 11.25 77.4908 11.25 75.9375V14.0625C11.25 12.5092 12.5092 11.25 14.0625 11.25H50.625C52.1783 11.25 53.4375 9.9908 53.4375 8.4375C53.4375 6.8842 52.1783 5.625 50.625 5.625H14.0625C9.4026 5.625 5.625 9.4026 5.625 14.0625V75.9375Z" fill="#0D6EFD"/>
</svg>
