<svg width="90" height="90" viewBox="0 0 90 90" fill="none" xmlns="http://www.w3.org/2000/svg">
<path d="M19.6875 36.5625C21.2408 36.5625 22.5 37.8217 22.5 39.375V45C22.5 57.4264 32.5736 67.5 45 67.5C57.4264 67.5 67.5 57.4264 67.5 45V39.375C67.5 37.8217 68.7592 36.5625 70.3125 36.5625C71.8658 36.5625 73.125 37.8217 73.125 39.375V45C73.125 59.5838 62.025 71.575 47.8125 72.9861V84.375H64.6875C66.2408 84.375 67.5 85.6342 67.5 87.1875C67.5 88.7408 66.2408 90 64.6875 90H25.3125C23.7592 90 22.5 88.7408 22.5 87.1875C22.5 85.6342 23.7592 84.375 25.3125 84.375H42.1875V72.9861C27.975 71.575 16.875 59.5838 16.875 45V39.375C16.875 37.8217 18.1342 36.5625 19.6875 36.5625Z" fill="#0D6EFD"/>
<path d="M56.25 45C56.25 51.2132 51.2132 56.25 45 56.25C38.7868 56.25 33.75 51.2132 33.75 45V16.875C33.75 10.6618 38.7868 5.625 45 5.625C51.2132 5.625 56.25 10.6618 56.25 16.875V45ZM45 0C35.6802 0 28.125 7.55519 28.125 16.875V45C28.125 54.3198 35.6802 61.875 45 61.875C54.3198 61.875 61.875 54.3198 61.875 45V16.875C61.875 7.5552 54.3198 0 45 0Z" fill="#0D6EFD"/>
</svg>
